<svg width="500" height="612" xmlns="http://www.w3.org/2000/svg" xmlns:svg="http://www.w3.org/2000/svg">
 <g class="layer">
  <title>Layer 1</title>
  <path fill-rule="evenodd" clip-rule="evenodd" d="m157.83304,370.282l184.034,0.016l92.027,-161.634l-92.002,-161.649l-184.033,-0.015l-92.027,161.633l92.001,161.649zm45.754,-78.776l-46.289,-81.136l46.3,-81.125l92.594,0.01l46.284,81.13l-46.299,81.126l-92.59,-0.005z" id="svg_1"/>
  <polygon fill-rule="evenodd" clip-rule="evenodd" fill="#7f0000" points="112.12105369567871,291.0470027923584 65.8320369720459,209.91100120544434 112.13704490661621,128.78500175476074 204.7250270843506,128.79499626159668 251.01503562927246,209.9320125579834 204.7100429534912,291.0580196380615 " id="svg_3"/>
  <path fill-rule="evenodd" clip-rule="evenodd" fill="#7f0000" d="m296.44904,449.692l91.625,0.005l45.82,-79.287l-45.805,-79.297l-91.63,-0.005l-45.821,79.287l45.811,79.297zm22.776,-38.643l-23.044,-39.798l23.055,-39.798l46.098,0.005l23.044,39.798l-23.049,39.798l-46.104,-0.005z" id="svg_4"/>
  <text stroke="#000000" fill="#000000" stroke-width="0" stroke-dasharray="null" stroke-linejoin="null" stroke-linecap="null" stroke-opacity="0" x="133.61473" y="407.36096" id="svg_27" font-size="18" font-family="Sans-serif" text-anchor="middle" xml:space="preserve" font-weight="bold" transform="matrix(6.308361530034647,0,0,6.308361530034647,-590.5036368997226,-2040.0382435917704) ">dlintec</text>
  <text stroke="#000000" transform="matrix(0.65507171366351,0,0,0.65507171366351,379.74011580435325,90.8912764743509) " font-weight="bold" xml:space="preserve" text-anchor="middle" font-family="Sans-serif" font-size="35" id="svg_8" y="701.32295" x="-201.71071" stroke-linecap="null" stroke-linejoin="null" stroke-dasharray="null" stroke-width="0" fill="#7f0000">Digital Intelligence Technologies</text>
 </g>
</svg>
