<svg width="730" height="236" xmlns="http://www.w3.org/2000/svg" xmlns:svg="http://www.w3.org/2000/svg">
 <g class="layer">
  <title>capa-logo</title>
  <text style="cursor: move;" font-weight="bold" x="-586" y="-130" fill="black" font-size="151.4007" font-family="Sans-serif" transform="matrix(1,0,0,1,799.3923,275.7444) " id="svg_27">dlintec</text>
  <g id="svg_5">
   <path d="m83.902,36.328l83.299,0l41.44,71.16l-41.858,71.579l-83.718,0.418l-41.022,-72.415l41.859,-70.742z" stroke-width="0" stroke="#000000" id="svg_13"/>
   <path d="m143.763,143.086l42.905,0l21.345,36.79l-21.561,37.008l-43.121,0.217l-21.129,-37.44l21.561,-36.575l0,0l0,0z"  stroke-width="0" stroke="#000000" fill="#7F0000" id="svg_18"/>
   <path d="m101.693,69.854l42.068,0l20.928,36.583l-21.14,36.798l-42.279,0.215l-20.717,-37.229l21.14,-36.367z"  stroke-width="0" stroke="#000000" fill="#FFFFFF" id="svg_20"/>
   <path d="m63.975,69.854l42.161,0l21.346,36.791l-21.561,37.008l-43.121,0.216l-21.13,-37.44l22.305,-36.575l0,0z"  stroke-width="0" stroke="#000000" fill="#7F0000" id="svg_21"/>
   <path d="m152.925,158.752l24.069,0l11.974,20.639l-12.095,20.761l-24.189,0.121l-11.854,-21.003l12.095,-20.518l0,0l0,0z"  stroke-width="0" stroke="#000000" fill="#FFFFFF" id="svg_22"/>
   <path d="m152.132,158.557l25.115,0l-12.558,20.72l-24.277,0l11.72,-20.72l0,0z"  stroke-width="0" stroke="#000000" id="svg_26"/>
  </g>
  <text font-size="29" font-weight="bold" font-family="Sans-serif" fill="#7f0000" x="-581" y="-131" transform="matrix(1,0,0,1,815.6882,309.7893) " id="svg_8">Digital Intelligence Technologies</text>
 </g>
</svg>
