<?xml version="1.0" encoding="utf-8"?>
<!-- Generator: Adobe Illustrator 16.0.3, SVG Export Plug-In . SVG Version: 6.00 Build 0)  -->
<!DOCTYPE svg PUBLIC "-//W3C//DTD SVG 1.1//EN" "http://www.w3.org/Graphics/SVG/1.1/DTD/svg11.dtd">
<svg version="1.1" id="Capa_1" xmlns="http://www.w3.org/2000/svg" xmlns:xlink="http://www.w3.org/1999/xlink" x="0px" y="0px"
	 width="636.555px" height="213px" viewBox="0 0 636.555 213" enable-background="new 0 0 636.555 213" xml:space="preserve">
<path fill-rule="evenodd" clip-rule="evenodd" fill="#FFD505" d="M212.264,141.055c-6.813-3.738-12.624-9.984-20.084-12.324
	c-7.641-2.348-15.668,0.297-23.262,1.781c-15.398,2.949-35.015,10.236-48.639-1.391c-0.22-0.176-0.477-0.391-0.691-0.566
	c-1.738-1.475-4.951-5.035-5.079-11.932c0,0-0.043-25.817,21.822-35.06c-7.808-10.586-8.98-23.994-10.668-36.622
	c7.851,2.561,10.626,10.935,17.009,15.49c11.452,8.071,26.73,12.151,38.787,19.832c13.018,8.243,24.864,17.918,35.147,29.418
	c3.383,3.813,10.803,11.277,14.536,18.439c0,0,3.344,8.111,0,13.102C226.804,145.436,217.52,143.918,212.264,141.055z
	 M143.883,11.315c-25.771,0-49.159,10.152-66.475,26.598c7.551,4.644,13.842,11.327,19.655,19.917h0.044
	c0,0,0.044,0.086,0.129,0.216l0.219,0.348c1.26,1.778,5.64,6.812,15.229,7.334c0,0,3.474,0,5.165-0.089
	c0.262-0.045,0.519-0.128,0.779-0.087l0.089-0.041l0.087-0.045c0.95-0.651,2.561,1.042,0.739,2.429
	c-1.694,1.302-4.518,1.909-4.951,1.998c-0.822,0.172-1.908,0.389-3.425,0.606l-1.042,0.175c-1.475,0.343-3.081,0.605-4.6,0.866
	l-6.551,1.216c0,0-2.517,0.649-3.862,1.039c-0.957,0.435-2.083,0.913-3.473,1.39c-4.553,1.604-9.022,3.56-13.406,5.596
	C67.82,85.642,57.971,91.5,47.99,97.139c-0.391,3.516-0.608,7.076-0.608,10.72c0,4.381,0.348,8.719,0.912,12.975
	C64.35,107.25,79.84,92.759,98.975,83.733c5.683-2.517,11.5-4.643,17.573-5.9c0,0,1.994-0.651,3.731-0.651c0.127,0,0.308,0,0.476,0
	c6.465,0.217,5.644,4.341,1.217,7.768c-0.606,0.605-2.217,2.125-3.733,4.122c-3.212,4.99-9.024,15.316-12.322,28.509
	c-0.433,1.904-0.823,3.811-1.086,5.813c-2.125,15.924-1.346,32.322-5.163,47.992l-0.519,1.254c0,0-3.3,6.637-11.628,13.535
	c15.882,11.414,35.32,18.186,56.363,18.186c53.327,0,96.543-43.221,96.543-96.5C240.426,54.532,197.21,11.315,143.883,11.315z"/>
<path fill="#F59C3D" d="M231.143,128.121c-3.733-7.162-11.153-14.627-14.536-18.439c-10.283-11.5-22.13-21.175-35.147-29.418
	c-12.057-7.681-27.335-11.761-38.787-19.874c-6.383-4.513-9.158-12.887-17.009-15.448c1.688,12.627,2.86,26.036,10.668,36.622
	c-21.865,9.242-21.822,35.06-21.822,35.06c0.128,6.896,3.341,10.457,5.079,11.889c0.215,0.219,0.472,0.434,0.691,0.609
	c13.624,11.627,33.24,4.34,48.639,1.391c7.594-1.484,15.621-4.129,23.262-1.781c7.46,2.34,13.271,8.586,20.084,12.324
	c5.256,2.863,14.54,4.381,18.879,0.168C234.486,136.232,231.143,128.121,231.143,128.121z"/>
<path fill="#F59C3D" d="M99.148,172.639l0.519-1.254c3.817-15.67,3.038-32.068,5.163-47.992c0.263-2.002,0.653-3.908,1.086-5.813
	c3.298-13.193,9.11-23.519,12.322-28.509c1.517-1.997,3.127-3.517,3.733-4.122c4.427-3.427,5.248-7.551-1.217-7.768h-0.476
	c-1.737,0-3.731,0.651-3.731,0.651c-6.073,1.258-11.89,3.384-17.573,5.9C79.84,92.759,64.35,107.25,48.294,120.834
	c3.603,26.855,18.225,50.203,39.226,65.34C95.848,179.275,99.148,172.639,99.148,172.639z"/>
<path fill="#F28D21" d="M91.64,75.186c1.39-0.477,2.516-0.955,3.473-1.39c1.346-0.39,3.862-1.039,3.862-1.039l6.551-1.216
	c1.56-0.261,3.125-0.523,4.6-0.866l1.042-0.175c1.517-0.218,2.603-0.435,3.425-0.606c0.434-0.089,3.257-0.696,4.951-1.998
	c1.643-1.26,0.472-2.732-0.479-2.56c-0.089,0.044-0.174,0.089-0.26,0.131l-0.087,0.045l-0.089,0.041
	c-0.261-0.041-0.518,0.042-0.779,0.087c-0.263,0-0.607,0.042-0.913,0.042c-1.819,0.047-4.252,0.047-4.252,0.047
	c-9.589-0.522-13.969-5.557-15.229-7.334l-0.219-0.348l-0.129-0.216h-0.044c-5.813-8.591-12.104-15.273-19.655-19.917
	C61.353,53.185,50.549,73.928,47.99,97.139c9.98-5.639,19.871-11.498,30.244-16.358C82.618,78.745,87.087,76.789,91.64,75.186z"/>
<rect x="96.199" y="162.961" fill="#F9AF1D" width="13.752" height="13.752"/>
<rect x="82.444" y="39.042" fill="#FFD505" width="13.754" height="13.754"/>
<rect x="82.444" y="25.287" fill="#FFEDB7" width="13.754" height="13.755"/>
<rect x="68.689" y="80.306" fill="#FFD505" width="13.755" height="13.798"/>
<rect x="82.444" y="80.306" fill="#FBB81B" width="13.754" height="13.798"/>
<rect x="68.689" y="94.104" fill="#F59C3D" width="13.755" height="13.794"/>
<rect x="68.689" y="66.551" fill="#F59C3D" width="13.755" height="13.755"/>
<rect y="80.351" fill="#FFEDB7" width="13.755" height="13.753"/>
<rect x="68.689" y="52.796" fill="#FFD505" width="13.755" height="13.754"/>
<rect x="68.689" y="39.042" fill="#F59C3D" width="13.755" height="13.754"/>
<rect x="54.889" y="80.306" fill="#F59C3D" width="13.8" height="13.798"/>
<rect x="54.889" y="94.147" fill="#FBB81B" width="13.8" height="13.798"/>
<rect x="54.889" y="107.945" fill="#F59C3D" width="13.8" height="13.752"/>
<rect x="82.444" y="121.697" fill="#F9AF1D" width="13.754" height="13.754"/>
<rect x="54.889" y="66.551" fill="#FFE144" width="13.8" height="13.755"/>
<rect x="54.889" y="52.796" fill="#F59C3D" width="13.8" height="13.754"/>
<rect x="41.135" y="80.306" fill="#FFD505" width="13.754" height="13.798"/>
<rect x="41.135" y="94.147" fill="#FFEC7C" width="13.754" height="13.798"/>
<rect x="41.135" y="107.945" fill="#F59C3D" width="13.754" height="13.752"/>
<rect x="41.135" y="66.551" fill="#FFEDB7" width="13.754" height="13.755"/>
<rect x="27.382" y="80.306" fill="#FFEDB7" width="13.753" height="13.798"/>
<rect x="13.624" y="52.796" fill="#FFEDB7" width="13.758" height="13.754"/>
<rect x="13.624" y="107.945" fill="#FFEDB7" width="13.758" height="13.752"/>
<rect x="54.889" y="11.531" fill="#FFEDB7" width="13.8" height="13.756"/>
<rect x="27.382" y="94.147" fill="#FFD505" width="13.753" height="13.798"/>
<rect y="121.697" fill="#FFEC7C" width="13.755" height="13.754"/>
<rect x="27.382" y="107.945" fill="#FFE144" width="13.753" height="13.752"/>
<rect x="27.382" y="121.697" fill="#F9AF1D" width="13.753" height="13.754"/>
<rect x="41.135" y="121.697" fill="#FFE144" width="13.754" height="13.754"/>
<rect x="41.135" y="25.287" fill="#FFD505" width="13.754" height="13.755"/>
<rect x="41.135" y="135.451" fill="#F59C3D" width="13.754" height="13.756"/>
<rect x="54.889" y="135.451" fill="#FFD505" width="13.8" height="13.756"/>
<rect y="25.287" fill="#FFEDB7" width="13.755" height="13.755"/>
<rect x="54.889" y="149.207" fill="#F59C3D" width="13.8" height="13.754"/>
<rect x="68.689" y="149.207" fill="#F9AF1D" width="13.755" height="13.754"/>
<rect x="27.382" y="66.551" fill="#F9AF1D" width="13.753" height="13.755"/>
<rect x="41.135" y="52.796" fill="#FFEC7C" width="13.754" height="13.754"/>
<rect x="54.889" y="39.042" fill="#FFEC7C" width="13.8" height="13.754"/>
<rect x="68.689" y="25.287" fill="#FFEC7C" width="13.755" height="13.755"/>
<rect x="96.199" y="39.042" fill="#F59C3D" width="13.752" height="13.754"/>
<rect x="96.199" y="25.287" fill="#FFD505" width="13.752" height="13.755"/>
<rect x="96.199" y="11.531" fill="#FFEC7C" width="13.752" height="13.756"/>
<rect x="82.444" y="11.531" fill="#FFFFFF" width="13.754" height="13.756"/>
<rect x="109.951" y="25.287" fill="#FFE144" width="13.754" height="13.755"/>
<rect x="123.705" y="25.287" fill="#F9AF1D" width="13.753" height="13.755"/>
<rect x="109.951" y="11.531" fill="#FFD505" width="13.754" height="13.756"/>
<rect x="123.705" y="11.531" fill="#FFD505" width="13.753" height="13.756"/>
<path fill="#F59C3D" d="M82.444,80.306c0,0,6.897-4.339,13.058-6.596l-14.752,1.52l-1.908,3.643L82.444,80.306z"/>
<rect x="82.444" y="52.796" fill="#F59C3D" width="13.754" height="13.754"/>
<rect x="15.925" y="-14.677" fill="none" width="233.791" height="250.8"/>
<path fill="#0658A3" d="M598.964,26.559c0,9.723-7.899,17.542-17.619,17.542c-9.721,0-17.613-7.818-17.613-17.542
	c0-9.718,7.893-17.615,17.613-17.615C591.064,8.944,598.964,16.841,598.964,26.559z"/>
<path fill="#010202" d="M250.359,16.309l45.254-1.667c60.746-2.278,65.303,30.294,65.303,38.421
	c0,29.004-28.855,39.408-53.078,42.065l-0.684-3.112c18.906-2.886,32.577-12.606,32.577-33.411c0-26.957-22.554-39.182-46.85-38.951
	v102.425c0,22.861,0.379,27.037,27.563,30.982v3.04h-71.528v-3.04c24.905-3.336,25.058-9.566,25.742-30.982V57.844
	c0-28.247,0-37.131-24.299-38.422V16.309z"/>
<path fill-rule="evenodd" clip-rule="evenodd" fill="#010202" d="M401.613,66.958c-22.4,0-31.589,23.236-31.589,42.294
	c0,19.287,10.787,44.417,33.26,44.417c20.959,0,30.297-23.84,30.297-41.69C433.581,92.848,424.243,66.958,401.613,66.958z
	 M401.767,158.23c-28.398,0-51.028-18.072-51.028-47.538c0-28.625,23.466-48.289,51.251-48.289
	c28.251,0,50.804,18.221,50.804,47.456C452.794,138.104,429.176,158.23,401.767,158.23z"/>
<path fill="#010202" d="M463.648,92.471c0-8.731,0.23-11.39-10.175-18.91v-2.049l24.682-9.108l2.277,0.834l-1.597,15.113
	c11.769-8.74,23.157-15.947,36.445-15.947c24.911,0,26.199,20.499,26.199,32.724v36.979c0,17.009,0.764,18.604,16.171,20.878v3.115
	h-48.359v-3.115c15.334-2.275,16.016-4.701,16.164-20.878v-23.919c0-14.501,0.607-35.004-24.679-35.004
	c-8.5,0-14.268,2.658-21.103,8.884v50.04c0,17.009,0.758,18.604,16.171,20.878v3.115h-48.367v-3.115
	c15.331-2.275,15.94-4.701,16.17-20.878V92.471z"/>
<path fill="#010202" d="M563.05,156.101v-3.04c15.409-2.351,16.018-4.776,16.241-20.954V92.471c0-8.731,0.153-11.39-12.682-18.91
	v-2.049l26.355-9.108l2.277,0.834v68.87c0,17.009,0.834,18.604,16.17,20.954v3.04H563.05z"/>
<path fill-rule="evenodd" clip-rule="evenodd" fill="#777777" d="M625.409,197.41c1.143,0,2.285,0,2.285-1.293
	c0-1.062-0.912-1.293-1.827-1.293h-1.674v2.586H625.409z M624.193,201.583h-0.906v-7.513h2.887c1.668,0,2.426,0.684,2.426,2.047
	c0,1.367-0.833,1.975-1.9,2.127l2.284,3.339h-1.142l-2.123-3.339h-1.525V201.583z M620.1,197.79c0,3.186,2.354,5.619,5.541,5.619
	c3.111,0,5.463-2.433,5.463-5.619c0-3.117-2.352-5.545-5.463-5.545C622.453,192.245,620.1,194.673,620.1,197.79z M632.172,197.79
	c0,3.723-2.891,6.605-6.531,6.605c-3.715,0-6.534-2.883-6.534-6.605c0-3.645,2.819-6.531,6.534-6.531
	C629.281,191.259,632.172,194.145,632.172,197.79z"/>
<path fill-rule="evenodd" clip-rule="evenodd" fill="#7F8184" d="M254.002,186.858c0.837,0.296,1.822,0.296,3.038,0.296
	c4.861,0,7.977-2.506,7.977-7.134c0-4.254-2.738-6.687-7.443-6.687c-1.672,0-2.886,0.155-3.571,0.31V186.858z M249.751,170.681
	c1.975-0.38,4.479-0.685,7.67-0.685c3.948,0,6.985,0.913,8.957,2.73c1.825,1.601,2.885,4.031,2.885,6.983
	c0,3.041-0.907,5.399-2.503,7.148c-2.202,2.5-5.771,3.715-9.721,3.715c-1.139,0-2.201-0.075-3.038-0.229v13.515h-4.25V170.681z"/>
<path fill-rule="evenodd" clip-rule="evenodd" fill="#7F8184" d="M285.972,190.195l-2.887-9.342
	c-0.684-2.277-1.216-4.479-1.671-6.599h-0.152c-0.457,2.12-0.986,4.477-1.596,6.525l-2.883,9.417H285.972z M276.024,193.457
	l-3.189,10.402h-4.328l10.478-33.558h5.012l10.4,33.558h-4.404l-3.261-10.402H276.024z"/>
<path fill="#7F8184" d="M321.734,202.569c-1.821,0.764-5.39,1.669-9.264,1.669c-4.48,0-8.351-1.143-11.314-4.092
	c-2.81-2.744-4.556-7.223-4.556-12.761c0-11.012,6.91-17.463,16.779-17.463c3.419,0,6.077,0.681,7.442,1.365l-0.986,3.492
	c-1.596-0.683-3.567-1.291-6.528-1.291c-7.065,0-12.304,4.634-12.304,13.666c0,9.04,4.863,13.595,11.696,13.595
	c2.428,0,4.02-0.378,4.859-0.758v-10.329h-6.15v-3.411h10.326V202.569z"/>
<path fill-rule="evenodd" clip-rule="evenodd" fill="#7F8184" d="M330.618,187.23c0,7.067,3.188,13.674,9.417,13.674
	c6.226,0,9.339-6.607,9.339-13.97c0-6.533-2.811-13.675-9.339-13.675C333.58,173.259,330.618,180.021,330.618,187.23z
	 M353.851,186.778c0,11.841-6.301,17.608-14.047,17.608c-8.121,0-13.666-6.598-13.666-17.083c0-10.78,5.922-17.528,14.123-17.528
	C348.54,169.775,353.851,176.523,353.851,186.778z"/>
<path fill="#7F8184" d="M358.637,198.851c1.743,1.141,4.329,1.977,6.989,1.977c4.248,0,6.752-2.282,6.752-5.775
	c0-3.108-1.82-4.932-5.92-6.68c-4.709-1.9-8.276-4.939-8.276-9.492c0-5.236,4.25-9.032,10.554-9.032
	c3.037,0,5.391,0.756,6.681,1.439l-1.139,3.492c-1.059-0.525-3.038-1.445-5.77-1.445c-4.25,0-6,2.661-6,4.938
	c0,3.263,1.977,4.708,6.308,6.607c5.311,2.425,7.894,5.316,7.894,9.871c0,5.315-3.948,9.564-11.314,9.564
	c-2.963,0-6.305-0.833-7.817-1.899L358.637,198.851z"/>
<path fill-rule="evenodd" clip-rule="evenodd" fill="#7F8184" d="M399.562,194.673c-3.033-0.072-7.818,0.379-7.818,4.627
	c0,2.506,1.518,3.577,3.11,3.577c2.507,0,4.027-1.596,4.558-3.42c0.078-0.377,0.15-0.763,0.15-1.059V194.673z M401.234,199.909
	c0,1.289,0,2.737,0.228,4.032h-1.517l-0.23-2.355h-0.153c-0.761,1.362-2.428,2.653-4.858,2.653c-3.11,0-4.781-2.196-4.781-4.7
	c0-4.034,3.49-6.229,9.64-6.229v-0.533c0-2.047-0.378-5.013-4.021-4.939c-1.369,0-2.737,0.311-3.876,1.142l-0.454-1.216
	c1.289-0.985,3.041-1.364,4.557-1.364c4.252,0,5.467,2.958,5.467,6.377V199.909z"/>
<rect x="406.473" y="178.658" fill="#7F8184" width="1.669" height="25.201"/>
<rect x="424.547" y="170.301" fill="#7F8184" width="4.327" height="33.558"/>
<path fill="#7F8184" d="M436.087,203.859v-33.558h4.553l9.491,16.557c2.211,3.872,4.183,7.744,5.62,11.234h0.075
	c-0.296-4.782-0.455-8.964-0.455-14.349v-13.442h3.955v33.558h-4.184l-9.563-16.705c-2.122-3.722-4.177-7.518-5.696-11.314h-0.15
	c0.298,4.33,0.298,8.431,0.298,14.505v13.515H436.087z"/>
<path fill="#7F8184" d="M465.926,198.851c1.752,1.141,4.331,1.977,6.986,1.977c4.255,0,6.763-2.282,6.763-5.775
	c0-3.108-1.826-4.932-5.926-6.68c-4.709-1.9-8.277-4.939-8.277-9.492c0-5.236,4.251-9.032,10.555-9.032
	c3.04,0,5.398,0.756,6.689,1.439l-1.143,3.492c-1.068-0.525-3.04-1.445-5.771-1.445c-4.255,0-6.007,2.661-6.007,4.938
	c0,3.263,1.982,4.708,6.307,6.607c5.323,2.425,7.903,5.316,7.903,9.871c0,5.315-3.953,9.564-11.315,9.564
	c-2.967,0-6.303-0.833-7.823-1.899L465.926,198.851z"/>
<polygon fill="#7F8184" points="495.395,173.868 486.2,173.868 486.2,170.301 508.831,170.301 508.831,173.868 499.644,173.868
	499.644,203.859 495.395,203.859 "/>
<path fill-rule="evenodd" clip-rule="evenodd" fill="#7F8184" d="M524.32,190.195l-2.884-9.342
	c-0.607-2.277-1.142-4.479-1.601-6.599h-0.149c-0.453,2.12-0.986,4.477-1.597,6.525l-2.882,9.417H524.32z M514.378,193.457
	l-3.116,10.402h-4.33l10.478-33.558h4.933l10.484,33.558h-4.405l-3.263-10.402H514.378z"/>
<path fill="#7F8184" d="M537.684,203.859v-33.558h4.484l9.567,16.557c2.194,3.872,4.093,7.744,5.618,11.234h0.078
	c-0.389-4.782-0.461-8.964-0.461-14.349v-13.442h3.945v33.558h-4.17l-9.645-16.705c-2.058-3.722-4.101-7.518-5.695-11.314h-0.155
	c0.31,4.33,0.385,8.431,0.385,14.505v13.515H537.684z"/>
<polygon fill="#7F8184" points="573.908,173.868 564.711,173.868 564.711,170.301 587.345,170.301 587.345,173.868 578.156,173.868
	578.156,203.859 573.908,203.859 "/>
<polygon fill="#7F8184" points="607.313,188.067 595.468,188.067 595.468,200.371 608.759,200.371 608.759,203.859 591.213,203.859
	591.213,170.301 608.075,170.301 608.075,173.792 595.468,173.792 595.468,184.575 607.313,184.575 "/>
</svg>
