<svg version="1.1" id="Capa_1" xmlns="http://www.w3.org/2000/svg" xmlns:xlink="http://www.w3.org/1999/xlink" x="0px" y="0px"
	 width="636.555px" height="213px" viewBox="0 0 636.555 213" enable-background="new 0 0 636.555 213" xml:space="preserve">
<path fill-rule="evenodd" clip-rule="evenodd" fill="#FFD505" d="M234.462,127.872c-5.5-3.021-10.19-8.062-16.215-9.951
	c-6.167-1.894-12.648,0.24-18.779,1.438c-12.43,2.382-28.267,8.265-39.267-1.122c-0.176-0.144-0.383-0.316-0.557-0.456
	c-1.404-1.192-3.998-4.067-4.102-9.635c0,0-0.034-20.843,17.619-28.304c-6.303-8.546-7.25-19.372-8.612-29.566
	c6.338,2.068,8.579,8.828,13.731,12.505c9.246,6.517,21.579,9.811,31.313,16.013c10.51,6.653,20.074,14.464,28.377,23.748
	c2.73,3.08,8.719,9.105,11.733,14.886c0,0,2.7,6.549,0,10.578C246.2,131.407,238.706,130.182,234.462,127.872z M179.257,23.128
	c-20.806,0-39.687,8.197-53.667,21.473c6.096,3.75,11.175,9.144,15.868,16.08h0.036c0,0,0.036,0.071,0.105,0.175l0.177,0.28
	c1.016,1.435,4.554,5.5,12.294,5.92c0,0,2.804,0,4.17-0.071c0.212-0.035,0.419-0.104,0.63-0.07l0.07-0.033l0.071-0.037
	c0.767-0.526,2.067,0.842,0.597,1.962c-1.368,1.051-3.646,1.541-3.997,1.612c-0.666,0.141-1.542,0.315-2.767,0.49l-0.839,0.142
	c-1.191,0.276-2.489,0.489-3.716,0.7l-5.286,0.981c0,0-2.033,0.524-3.119,0.839c-0.774,0.352-1.683,0.737-2.805,1.122
	c-3.676,1.295-7.284,2.874-10.822,4.519c-8.406,3.923-16.359,8.652-24.416,13.206c-0.317,2.837-0.493,5.713-0.493,8.653
	c0,3.538,0.283,7.039,0.738,10.477c12.96-10.968,25.468-22.667,40.917-29.953c4.587-2.031,9.281-3.749,14.185-4.762
	c0,0,1.61-0.527,3.012-0.527c0.103,0,0.249,0,0.384,0c5.22,0.175,4.557,3.506,0.983,6.271c-0.49,0.491-1.79,1.714-3.017,3.328
	c-2.59,4.029-7.283,12.364-9.944,23.015c-0.352,1.537-0.666,3.076-0.879,4.692c-1.715,12.857-1.087,26.096-4.168,38.745
	l-0.419,1.013c0,0-2.665,5.358-9.387,10.927c12.821,9.214,28.514,14.682,45.503,14.682c43.052,0,77.939-34.893,77.939-77.908
	C257.197,58.02,222.31,23.128,179.257,23.128z"/>
<path fill="#F59C3D" d="M249.702,117.428c-3.014-5.781-9.002-11.807-11.733-14.886c-8.303-9.284-17.867-17.094-28.377-23.748
	c-9.733-6.202-22.067-9.496-31.313-16.047c-5.152-3.643-7.394-10.402-13.731-12.471c1.362,10.194,2.309,21.02,8.612,29.566
	c-17.652,7.461-17.619,28.304-17.619,28.304c0.104,5.568,2.698,8.442,4.102,9.599c0.173,0.176,0.38,0.349,0.557,0.492
	c11,9.387,26.836,3.503,39.267,1.122c6.131-1.198,12.612-3.332,18.779-1.438c6.025,1.89,10.715,6.931,16.215,9.951
	c4.244,2.31,11.738,3.536,15.24,0.134C252.402,123.977,249.702,117.428,249.702,117.428z"/>
<path fill="#F59C3D" d="M143.141,153.369l0.419-1.013c3.081-12.649,2.453-25.888,4.168-38.745c0.213-1.616,0.527-3.156,0.879-4.692
	c2.661-10.651,7.354-18.986,9.944-23.015c1.227-1.614,2.526-2.837,3.017-3.328c3.574-2.765,4.236-6.096-0.983-6.271h-0.384
	c-1.402,0-3.012,0.527-3.012,0.527c-4.904,1.014-9.598,2.731-14.185,4.762c-15.449,7.287-27.956,18.985-40.917,29.953
	c2.907,21.68,14.712,40.529,31.667,52.75C140.477,158.727,143.141,153.369,143.141,153.369z"/>
<path fill="#F28D21" d="M137.08,74.693c1.123-0.384,2.031-0.77,2.805-1.122c1.085-0.315,3.119-0.839,3.119-0.839l5.286-0.981
	c1.262-0.211,2.525-0.423,3.716-0.7l0.839-0.142c1.225-0.175,2.101-0.349,2.767-0.49c0.35-0.071,2.628-0.561,3.997-1.612
	c1.326-1.017,0.381-2.206-0.387-2.066c-0.073,0.035-0.14,0.073-0.209,0.104l-0.071,0.037l-0.07,0.033
	c-0.211-0.033-0.418,0.035-0.63,0.07c-0.212,0-0.49,0.035-0.737,0.035c-1.468,0.036-3.433,0.036-3.433,0.036
	c-7.74-0.42-11.278-4.486-12.294-5.92l-0.177-0.28l-0.105-0.175h-0.036c-4.693-6.936-9.772-12.33-15.868-16.08
	c-12.962,12.331-21.684,29.076-23.749,47.816c8.057-4.554,16.043-9.283,24.416-13.206C129.796,77.566,133.403,75.988,137.08,74.693z
	"/>
<rect x="140.761" y="145.555" fill="#F9AF1D" width="11.102" height="11.103"/>
<rect x="129.657" y="45.514" fill="#FFD505" width="11.104" height="11.104"/>
<rect x="129.657" y="34.41" fill="#FFEDB7" width="11.104" height="11.104"/>
<rect x="118.551" y="78.826" fill="#FFD505" width="11.105" height="11.141"/>
<rect x="129.657" y="78.826" fill="#FBB81B" width="11.104" height="11.141"/>
<rect x="118.551" y="89.967" fill="#F59C3D" width="11.105" height="11.136"/>
<rect x="118.551" y="67.722" fill="#F59C3D" width="11.105" height="11.104"/>
<rect x="63.098" y="78.863" fill="#FFEDB7" width="11.106" height="11.104"/>
<rect x="118.551" y="56.617" fill="#FFD505" width="11.105" height="11.105"/>
<rect x="118.551" y="45.514" fill="#F59C3D" width="11.105" height="11.104"/>
<rect x="107.41" y="78.826" fill="#F59C3D" width="11.141" height="11.141"/>
<rect x="107.41" y="90" fill="#FBB81B" width="11.141" height="11.142"/>
<rect x="107.41" y="101.142" fill="#F59C3D" width="11.141" height="11.101"/>
<rect x="129.657" y="112.243" fill="#F9AF1D" width="11.104" height="11.104"/>
<rect x="107.41" y="67.722" fill="#FFE144" width="11.141" height="11.104"/>
<rect x="107.41" y="56.617" fill="#F59C3D" width="11.141" height="11.105"/>
<rect x="96.307" y="78.826" fill="#FFD505" width="11.103" height="11.141"/>
<rect x="96.307" y="90" fill="#FFEC7C" width="11.103" height="11.142"/>
<rect x="96.307" y="101.142" fill="#F59C3D" width="11.103" height="11.101"/>
<rect x="96.307" y="67.722" fill="#FFEDB7" width="11.103" height="11.104"/>
<rect x="85.204" y="78.826" fill="#FFEDB7" width="11.103" height="11.141"/>
<rect x="74.096" y="56.617" fill="#FFEDB7" width="11.108" height="11.105"/>
<rect x="74.096" y="101.142" fill="#FFEDB7" width="11.108" height="11.101"/>
<rect x="107.41" y="23.304" fill="#FFEDB7" width="11.141" height="11.105"/>
<rect x="85.204" y="90" fill="#FFD505" width="11.103" height="11.142"/>
<rect x="63.098" y="112.243" fill="#FFEC7C" width="11.106" height="11.104"/>
<rect x="85.204" y="101.142" fill="#FFE144" width="11.103" height="11.101"/>
<rect x="85.204" y="112.243" fill="#F9AF1D" width="11.103" height="11.104"/>
<rect x="96.307" y="112.243" fill="#FFE144" width="11.103" height="11.104"/>
<rect x="96.307" y="34.41" fill="#FFD505" width="11.103" height="11.104"/>
<rect x="96.307" y="123.347" fill="#F59C3D" width="11.103" height="11.104"/>
<rect x="107.41" y="123.347" fill="#FFD505" width="11.141" height="11.104"/>
<rect x="63.098" y="34.41" fill="#FFEDB7" width="11.106" height="11.104"/>
<rect x="107.41" y="134.451" fill="#F59C3D" width="11.141" height="11.104"/>
<rect x="118.551" y="134.451" fill="#F9AF1D" width="11.105" height="11.104"/>
<rect x="85.204" y="67.722" fill="#F9AF1D" width="11.103" height="11.104"/>
<rect x="96.307" y="56.617" fill="#FFEC7C" width="11.103" height="11.105"/>
<rect x="107.41" y="45.514" fill="#FFEC7C" width="11.141" height="11.104"/>
<rect x="118.551" y="34.41" fill="#FFEC7C" width="11.105" height="11.104"/>
<rect x="140.761" y="45.514" fill="#F59C3D" width="11.102" height="11.104"/>
<rect x="140.761" y="34.41" fill="#FFD505" width="11.102" height="11.104"/>
<rect x="140.761" y="23.304" fill="#FFEC7C" width="11.102" height="11.105"/>
<rect x="129.657" y="23.304" fill="#FFFFFF" width="11.104" height="11.105"/>
<rect x="151.863" y="34.41" fill="#FFE144" width="11.104" height="11.104"/>
<rect x="162.966" y="34.41" fill="#F9AF1D" width="11.103" height="11.104"/>
<rect x="151.863" y="23.304" fill="#FFD505" width="11.104" height="11.105"/>
<rect x="162.966" y="23.304" fill="#FFD505" width="11.103" height="11.105"/>
<path fill="#F59C3D" d="M129.657,78.826c0,0,5.567-3.504,10.542-5.323l-11.91,1.225l-1.541,2.94L129.657,78.826z"/>
<rect x="129.657" y="56.617" fill="#F59C3D" width="11.104" height="11.105"/>
<rect x="75.954" y="2.145" fill="none" width="188.745" height="202.476"/>
<path fill="#0658A3" d="M546.648,35.436c0,7.851-6.373,14.162-14.221,14.162c-7.852,0-14.219-6.311-14.219-14.162
	c0-7.844,6.367-14.22,14.219-14.22C540.275,21.215,546.648,27.592,546.648,35.436z"/>
<path fill="#010202" d="M265.217,27.161l36.533-1.345c49.042-1.841,52.719,24.455,52.719,31.016
	c0,23.417-23.295,31.816-42.848,33.962l-0.552-2.513c15.263-2.331,26.3-10.178,26.3-26.974c0-21.763-18.208-31.633-37.823-31.446
	v82.69c0,18.456,0.307,21.828,22.252,25.013v2.454h-57.747v-2.454c20.106-2.694,20.23-7.723,20.781-25.013V60.692
	c0-22.803,0-29.975-19.615-31.019V27.161z"/>
<path fill-rule="evenodd" clip-rule="evenodd" fill="#010202" d="M387.327,68.05c-18.083,0-25.503,18.76-25.503,34.146
	c0,15.569,8.707,35.858,26.849,35.858c16.924,0,24.463-19.246,24.463-33.657C413.136,88.952,405.597,68.05,387.327,68.05z
	 M387.451,141.735c-22.928,0-41.196-14.589-41.196-38.376c0-23.11,18.946-38.984,41.379-38.984c22.807,0,41.013,14.709,41.013,38.31
	C428.646,125.488,409.576,141.735,387.451,141.735z"/>
<path fill="#010202" d="M437.408,88.647c0-7.05,0.189-9.195-8.216-15.267v-1.654l19.929-7.352l1.837,0.673l-1.287,12.202
	c9.499-7.058,18.693-12.875,29.423-12.875c20.11,0,21.152,16.548,21.152,26.419v29.854c0,13.73,0.611,15.019,13.056,16.854v2.516
	h-39.043v-2.516c12.378-1.835,12.927-3.794,13.05-16.854v-19.313c0-11.706,0.487-28.26-19.923-28.26
	c-6.862,0-11.52,2.147-17.041,7.173v40.399c0,13.73,0.613,15.019,13.058,16.854v2.516h-39.049v-2.516
	c12.38-1.835,12.874-3.794,13.055-16.854V88.647z"/>
<path fill="#010202" d="M517.657,140.017v-2.454c12.44-1.897,12.937-3.856,13.112-16.916v-32c0-7.05,0.124-9.195-10.242-15.267
	v-1.654l21.277-7.352l1.841,0.673v55.6c0,13.73,0.673,15.019,13.058,16.916v2.454H517.657z"/>
<path fill-rule="evenodd" clip-rule="evenodd" fill="#777777" d="M568.001,173.365c0.924,0,1.843,0,1.843-1.043
	c0-0.855-0.736-1.043-1.472-1.043h-1.354v2.086H568.001z M567.019,176.735h-0.73v-6.066h2.33c1.35,0,1.961,0.552,1.961,1.653
	c0,1.106-0.678,1.594-1.537,1.718l1.849,2.695h-0.923l-1.719-2.695h-1.23V176.735z M563.717,173.673c0,2.573,1.9,4.537,4.473,4.537
	c2.509,0,4.409-1.964,4.409-4.537c0-2.518-1.9-4.476-4.409-4.476C565.617,169.197,563.717,171.156,563.717,173.673z
	 M573.457,173.673c0,3.004-2.33,5.333-5.268,5.333c-3.002,0-5.281-2.328-5.281-5.333c0-2.943,2.279-5.272,5.281-5.272
	C571.127,168.401,573.457,170.73,573.457,173.673z"/>
<path fill-rule="evenodd" clip-rule="evenodd" fill="#7F8184" d="M268.157,164.849c0.677,0.239,1.472,0.239,2.453,0.239
	c3.922,0,6.439-2.023,6.439-5.76c0-3.434-2.209-5.397-6.008-5.397c-1.351,0-2.33,0.124-2.884,0.25V164.849z M264.726,151.789
	c1.595-0.308,3.615-0.553,6.193-0.553c3.186,0,5.639,0.736,7.231,2.204c1.472,1.292,2.33,3.254,2.33,5.637
	c0,2.455-0.732,4.359-2.021,5.772c-1.777,2.017-4.66,2.998-7.848,2.998c-0.92,0-1.776-0.061-2.453-0.184v10.911h-3.431V151.789z"/>
<path fill-rule="evenodd" clip-rule="evenodd" fill="#7F8184" d="M293.967,167.541L291.637,160
	c-0.552-1.838-0.981-3.616-1.349-5.327h-0.123c-0.368,1.711-0.796,3.613-1.289,5.269l-2.328,7.6H293.967z M285.937,170.174
	l-2.575,8.399h-3.492l8.458-27.092h4.044l8.397,27.092h-3.555l-2.632-8.399H285.937z"/>
<path fill="#7F8184" d="M322.839,177.532c-1.468,0.617-4.35,1.349-7.478,1.349c-3.617,0-6.742-0.923-9.135-3.304
	c-2.269-2.215-3.678-5.833-3.678-10.302c0-8.891,5.579-14.1,13.547-14.1c2.759,0,4.905,0.55,6.008,1.103l-0.796,2.819
	c-1.289-0.55-2.882-1.042-5.27-1.042c-5.704,0-9.935,3.742-9.935,11.034c0,7.298,3.926,10.975,9.444,10.975
	c1.96,0,3.245-0.305,3.921-0.613v-8.338h-4.964v-2.754h8.336V177.532z"/>
<path fill-rule="evenodd" clip-rule="evenodd" fill="#7F8184" d="M330.012,165.148c0,5.704,2.575,11.04,7.6,11.04
	c5.028,0,7.539-5.335,7.539-11.278c0-5.275-2.269-11.04-7.539-11.04C332.401,153.87,330.012,159.328,330.012,165.148z
	 M348.766,164.783c0,9.56-5.084,14.216-11.339,14.216c-6.557,0-11.031-5.327-11.031-13.79c0-8.704,4.778-14.153,11.401-14.153
	C344.479,151.057,348.766,156.505,348.766,164.783z"/>
<path fill="#7F8184" d="M352.631,174.53c1.407,0.92,3.495,1.596,5.642,1.596c3.433,0,5.452-1.842,5.452-4.663
	c0-2.508-1.469-3.981-4.781-5.392c-3.801-1.533-6.682-3.989-6.682-7.664c0-4.228,3.434-7.292,8.521-7.292
	c2.453,0,4.354,0.61,5.392,1.163l-0.916,2.819c-0.855-0.424-2.452-1.167-4.659-1.167c-3.431,0-4.843,2.147-4.843,3.987
	c0,2.633,1.598,3.8,5.092,5.333c4.288,1.959,6.375,4.291,6.375,7.97c0,4.291-3.192,7.72-9.137,7.72c-2.392,0-5.09-0.672-6.312-1.531
	L352.631,174.53z"/>
<path fill-rule="evenodd" clip-rule="evenodd" fill="#7F8184" d="M385.67,171.157c-2.446-0.057-6.313,0.306-6.313,3.736
	c0,2.021,1.228,2.887,2.512,2.887c2.026,0,3.252-1.287,3.684-2.761c0.061-0.305,0.118-0.615,0.118-0.854V171.157z M387.023,175.384
	c0,1.04,0,2.211,0.179,3.255h-1.223l-0.185-1.902h-0.125c-0.616,1.101-1.961,2.143-3.922,2.143c-2.512,0-3.858-1.774-3.858-3.794
	c0-3.258,2.817-5.03,7.78-5.03v-0.43c0-1.653-0.304-4.049-3.244-3.987c-1.106,0-2.211,0.249-3.131,0.923l-0.366-0.984
	c1.039-0.795,2.454-1.1,3.68-1.1c3.432,0,4.415,2.388,4.415,5.149V175.384z"/>
<rect x="391.253" y="158.228" fill="#7F8184" width="1.345" height="20.345"/>
<rect x="405.841" y="151.481" fill="#7F8184" width="3.493" height="27.092"/>
<path fill="#7F8184" d="M415.161,178.573v-27.092h3.672l7.665,13.368c1.781,3.125,3.378,6.251,4.538,9.069h0.057
	c-0.239-3.861-0.369-7.237-0.369-11.584v-10.852h3.195v27.092h-3.378l-7.716-13.485c-1.719-3.006-3.373-6.07-4.603-9.134h-0.12
	c0.237,3.494,0.237,6.806,0.237,11.708v10.911H415.161z"/>
<path fill="#7F8184" d="M439.25,174.53c1.413,0.92,3.497,1.596,5.641,1.596c3.431,0,5.454-1.842,5.454-4.663
	c0-2.508-1.47-3.981-4.784-5.392c-3.802-1.533-6.68-3.989-6.68-7.664c0-4.228,3.431-7.292,8.522-7.292
	c2.452,0,4.354,0.61,5.396,1.163l-0.919,2.819c-0.863-0.424-2.454-1.167-4.659-1.167c-3.438,0-4.851,2.147-4.851,3.987
	c0,2.633,1.602,3.8,5.092,5.333c4.295,1.959,6.379,4.291,6.379,7.97c0,4.291-3.19,7.72-9.134,7.72c-2.396,0-5.085-0.672-6.316-1.531
	L439.25,174.53z"/>
<polygon fill="#7F8184" points="463.036,154.36 455.62,154.36 455.62,151.481 473.883,151.481 473.883,154.36 466.468,154.36
	466.468,178.573 463.036,178.573 "/>
<path fill-rule="evenodd" clip-rule="evenodd" fill="#7F8184" d="M486.391,167.541l-2.33-7.541c-0.489-1.838-0.918-3.616-1.29-5.327
	h-0.122c-0.366,1.711-0.796,3.613-1.29,5.269l-2.325,7.6H486.391z M478.363,170.174l-2.514,8.399h-3.497l8.457-27.092h3.981
	l8.463,27.092h-3.549l-2.638-8.399H478.363z"/>
<path fill="#7F8184" d="M497.181,178.573v-27.092h3.618l7.722,13.368c1.772,3.125,3.31,6.251,4.539,9.069h0.059
	c-0.312-3.861-0.371-7.237-0.371-11.584v-10.852h3.19v27.092h-3.367l-7.787-13.485c-1.659-3.006-3.312-6.07-4.601-9.134h-0.126
	c0.252,3.494,0.312,6.806,0.312,11.708v10.911H497.181z"/>
<polygon fill="#7F8184" points="526.425,154.36 518.999,154.36 518.999,151.481 537.273,151.481 537.273,154.36 529.856,154.36
	529.856,178.573 526.425,178.573 "/>
<polygon fill="#7F8184" points="553.389,165.825 543.83,165.825 543.83,175.757 554.559,175.757 554.559,178.573 540.393,178.573
	540.393,151.481 554.007,151.481 554.007,154.299 543.83,154.299 543.83,163.004 553.389,163.004 "/>
</svg>
