<?xml version="1.0" encoding="utf-8"?>
<!-- Generator: Adobe Illustrator 16.0.3, SVG Export Plug-In . SVG Version: 6.00 Build 0)  -->
<!DOCTYPE svg PUBLIC "-//W3C//DTD SVG 1.1//EN" "http://www.w3.org/Graphics/SVG/1.1/DTD/svg11.dtd">
<svg version="1.1" id="Capa_1" xmlns="http://www.w3.org/2000/svg" xmlns:xlink="http://www.w3.org/1999/xlink" x="0px" y="0px"
	 width="612px" height="792px" viewBox="0 0 612 792" enable-background="new 0 0 612 792" xml:space="preserve">
<path fill="#0658A3" d="M557.733,496.714c0,14.326-11.638,25.846-25.96,25.846c-14.321,0-25.95-11.52-25.95-25.846
	c0-14.317,11.629-25.953,25.95-25.953C546.096,470.761,557.733,482.396,557.733,496.714z"/>
<path fill="#010202" d="M44.107,476.611l66.676-2.457C200.285,470.798,207,518.79,207,530.764c0,42.734-42.517,58.063-78.205,61.978
	l-1.006-4.586c27.855-4.252,47.998-18.574,47.998-49.227c0-39.717-33.231-57.729-69.027-57.39V632.45
	c0,33.684,0.558,39.836,40.611,45.649v4.478H41.981V678.1c36.694-4.916,36.92-14.096,37.927-45.649v-94.642
	c0-41.617,0-54.708-35.801-56.609V476.611z"/>
<path fill-rule="evenodd" clip-rule="evenodd" fill="#010202" d="M266.96,551.236c-33.003,0-46.54,34.235-46.54,62.315
	c0,28.416,15.893,65.443,49.003,65.443c30.88,0,44.64-35.126,44.64-61.426C314.063,589.383,300.304,551.236,266.96,551.236z
	 M267.188,685.715c-41.842,0-75.184-26.627-75.184-70.041c0-42.176,34.574-71.147,75.514-71.147
	c41.624,0,74.851,26.846,74.851,69.919C342.369,656.063,307.572,685.715,267.188,685.715z"/>
<path fill="#010202" d="M358.363,588.826c0-12.864,0.34-16.781-14.991-27.861v-3.02l36.364-13.419l3.355,1.229l-2.352,22.267
	c17.339-12.876,34.119-23.495,53.696-23.495c36.704,0,38.603,30.202,38.603,48.215v54.484c0,25.061,1.125,27.41,23.826,30.762v4.59
	h-71.252v-4.59c22.593-3.352,23.598-6.926,23.815-30.762v-35.242c0-21.365,0.896-51.574-36.36-51.574
	c-12.523,0-21.022,3.916-31.092,13.089v73.728c0,25.061,1.115,27.41,23.825,30.762v4.59h-71.263v-4.59
	c22.588-3.352,23.485-6.926,23.824-30.762V588.826z"/>
<path fill="#010202" d="M504.819,682.577V678.1c22.703-3.464,23.601-7.038,23.928-30.874v-58.399
	c0-12.864,0.228-16.781-18.685-27.861v-3.02l38.832-13.419l3.354,1.229v101.471c0,25.061,1.23,27.41,23.825,30.874v4.478H504.819z"
	/>
<path fill-rule="evenodd" clip-rule="evenodd" fill="#777777" d="M596.698,743.441c1.684,0,3.367,0,3.367-1.904
	c0-1.563-1.345-1.904-2.692-1.904h-2.468v3.809H596.698z M594.905,749.591h-1.334v-11.069h4.253c2.458,0,3.573,1.007,3.573,3.016
	c0,2.015-1.227,2.909-2.799,3.134l3.365,4.92h-1.682l-3.127-4.92h-2.25V749.591z M588.874,744.001c0,4.694,3.467,8.279,8.164,8.279
	c4.586,0,8.05-3.585,8.05-8.279c0-4.592-3.464-8.169-8.05-8.169C592.341,735.832,588.874,739.409,588.874,744.001z M606.662,744.001
	c0,5.485-4.261,9.732-9.624,9.732c-5.474,0-9.627-4.247-9.627-9.732c0-5.37,4.153-9.622,9.627-9.622
	C602.401,734.379,606.662,738.631,606.662,744.001z"/>
<path fill-rule="evenodd" clip-rule="evenodd" fill="#7F8184" d="M49.475,727.895c1.232,0.437,2.684,0.437,4.475,0.437
	c7.162,0,11.753-3.691,11.753-10.51c0-6.27-4.035-9.853-10.967-9.853c-2.464,0-4.252,0.228-5.261,0.456V727.895z M43.211,704.06
	c2.911-0.56,6.599-1.008,11.301-1.008c5.818,0,10.293,1.346,13.197,4.021c2.689,2.359,4.252,5.94,4.252,10.289
	c0,4.48-1.338,7.955-3.688,10.532c-3.244,3.684-8.504,5.475-14.323,5.475c-1.677,0-3.243-0.11-4.475-0.338v19.913h-6.264V704.06z"/>
<path fill-rule="evenodd" clip-rule="evenodd" fill="#7F8184" d="M96.577,732.812l-4.252-13.765
	c-1.008-3.355-1.791-6.599-2.462-9.723h-0.224c-0.674,3.124-1.454,6.597-2.352,9.613l-4.247,13.874H96.577z M81.92,737.618
	l-4.698,15.326h-6.375L86.285,703.5h7.384l15.323,49.444h-6.489l-4.805-15.326H81.92z"/>
<path fill="#7F8184" d="M149.271,751.044c-2.684,1.126-7.943,2.46-13.648,2.46c-6.603,0-12.305-1.685-16.671-6.029
	c-4.141-4.042-6.712-10.642-6.712-18.803c0-16.224,10.181-25.729,24.722-25.729c5.038,0,8.955,1.003,10.965,2.01l-1.452,5.146
	c-2.352-1.007-5.257-1.902-9.62-1.902c-10.41,0-18.128,6.828-18.128,20.135c0,13.319,7.164,20.03,17.231,20.03
	c3.578,0,5.925-0.557,7.161-1.116v-15.219h-9.062V727h15.214V751.044z"/>
<path fill-rule="evenodd" clip-rule="evenodd" fill="#7F8184" d="M162.358,728.443c0,10.412,4.698,20.146,13.875,20.146
	c9.173,0,13.76-9.734,13.76-20.583c0-9.626-4.141-20.148-13.76-20.148C166.723,707.858,162.358,717.821,162.358,728.443z
	 M196.59,727.777c0,17.447-9.284,25.943-20.697,25.943c-11.966,0-20.135-9.721-20.135-25.169c0-15.884,8.725-25.826,20.809-25.826
	C188.765,702.726,196.59,712.668,196.59,727.777z"/>
<path fill="#7F8184" d="M203.641,745.564c2.569,1.681,6.38,2.913,10.298,2.913c6.26,0,9.949-3.362,9.949-8.51
	c0-4.579-2.682-7.267-8.723-9.842c-6.939-2.8-12.194-7.278-12.194-13.985c0-7.716,6.26-13.309,15.549-13.309
	c4.475,0,7.942,1.113,9.843,2.12l-1.679,5.146c-1.56-0.774-4.475-2.13-8.499-2.13c-6.264,0-8.839,3.92-8.839,7.275
	c0,4.809,2.911,6.937,9.29,9.735c7.826,3.572,11.632,7.832,11.632,14.543c0,7.832-5.818,14.092-16.67,14.092
	c-4.367,0-9.29-1.228-11.52-2.798L203.641,745.564z"/>
<path fill-rule="evenodd" clip-rule="evenodd" fill="#7F8184" d="M263.939,739.41c-4.47-0.106-11.519,0.558-11.519,6.816
	c0,3.692,2.235,5.271,4.583,5.271c3.693,0,5.934-2.352,6.715-5.039c0.115-0.556,0.222-1.124,0.222-1.561V739.41z M266.404,747.124
	c0,1.898,0,4.032,0.335,5.941h-2.236l-0.339-3.471h-0.224c-1.12,2.007-3.578,3.909-7.16,3.909c-4.583,0-7.046-3.236-7.046-6.925
	c0-5.944,5.145-9.178,14.206-9.178v-0.785c0-3.018-0.557-7.388-5.923-7.277c-2.018,0-4.034,0.458-5.712,1.682l-0.669-1.792
	c1.901-1.451,4.48-2.009,6.715-2.009c6.265,0,8.054,4.358,8.054,9.396V747.124z"/>
<rect x="274.122" y="715.813" fill="#7F8184" width="2.459" height="37.131"/>
<rect x="300.75" y="703.5" fill="#7F8184" width="6.376" height="49.444"/>
<path fill="#7F8184" d="M317.754,752.944V703.5h6.709l13.983,24.395c3.258,5.704,6.162,11.409,8.281,16.553h0.111
	c-0.437-7.046-0.671-13.208-0.671-21.142V703.5h5.827v49.444h-6.164l-14.089-24.613c-3.128-5.483-6.153-11.076-8.394-16.67h-0.223
	c0.44,6.379,0.44,12.422,0.44,21.37v19.913H317.754z"/>
<path fill="#7F8184" d="M361.719,745.564c2.58,1.681,6.381,2.913,10.293,2.913c6.271,0,9.965-3.362,9.965-8.51
	c0-4.579-2.692-7.267-8.732-9.842c-6.938-2.8-12.194-7.278-12.194-13.985c0-7.716,6.263-13.309,15.55-13.309
	c4.48,0,7.955,1.113,9.857,2.12l-1.684,5.146c-1.575-0.774-4.479-2.13-8.504-2.13c-6.27,0-8.85,3.92-8.85,7.275
	c0,4.809,2.92,6.937,9.292,9.735c7.843,3.572,11.645,7.832,11.645,14.543c0,7.832-5.824,14.092-16.673,14.092
	c-4.371,0-9.286-1.228-11.526-2.798L361.719,745.564z"/>
<polygon fill="#7F8184" points="405.137,708.756 391.59,708.756 391.59,703.5 424.934,703.5 424.934,708.756 411.397,708.756
	411.397,752.944 405.137,752.944 "/>
<path fill-rule="evenodd" clip-rule="evenodd" fill="#7F8184" d="M447.755,732.812l-4.248-13.765
	c-0.895-3.355-1.682-6.599-2.359-9.723h-0.219c-0.669,3.124-1.454,6.597-2.352,9.613l-4.247,13.874H447.755z M433.107,737.618
	l-4.592,15.326h-6.381l15.438-49.444h7.268l15.447,49.444h-6.491l-4.807-15.326H433.107z"/>
<path fill="#7F8184" d="M467.444,752.944V703.5h6.607l14.096,24.395c3.234,5.704,6.03,11.409,8.28,16.553h0.112
	c-0.572-7.046-0.678-13.208-0.678-21.142V703.5h5.813v49.444h-6.144l-14.211-24.613c-3.03-5.483-6.041-11.076-8.392-16.67h-0.228
	c0.455,6.379,0.566,12.422,0.566,21.37v19.913H467.444z"/>
<polygon fill="#7F8184" points="520.817,708.756 507.266,708.756 507.266,703.5 540.614,703.5 540.614,708.756 527.076,708.756
	527.076,752.944 520.817,752.944 "/>
<polygon fill="#7F8184" points="570.034,729.677 552.583,729.677 552.583,747.805 572.166,747.805 572.166,752.944 546.314,752.944
	546.314,703.5 571.157,703.5 571.157,708.644 552.583,708.644 552.583,724.53 570.034,724.53 "/>
<path fill-rule="evenodd" clip-rule="evenodd" fill="#FFD505" d="M502.896,365.292c-15.979-8.769-29.613-23.419-47.111-28.908
	c-17.92-5.507-36.752,0.697-54.564,4.179c-36.117,6.917-82.129,24.011-114.087-3.262c-0.517-0.412-1.12-0.917-1.624-1.329
	c-4.077-3.458-11.613-11.811-11.913-27.987c0,0-0.101-60.559,51.188-82.237c-18.315-24.831-21.067-56.282-25.023-85.902
	c18.414,6.006,24.924,25.649,39.896,36.334c26.861,18.933,62.701,28.502,90.98,46.519c30.535,19.335,58.322,42.03,82.443,69.003
	c7.936,8.943,25.34,26.453,34.098,43.253c0,0,7.842,19.026,0,30.732C537.002,375.569,515.225,372.009,502.896,365.292z
	 M342.498,60.969c-60.451,0-115.308,23.813-155.926,62.389c17.711,10.893,32.468,26.568,46.104,46.719h0.105
	c0,0,0.104,0.202,0.304,0.507l0.514,0.816c2.954,4.17,13.227,15.979,35.72,17.204c0,0,8.148,0,12.115-0.208
	c0.614-0.105,1.218-0.3,1.828-0.204l0.208-0.097l0.204-0.105c2.23-1.528,6.006,2.444,1.735,5.696
	c-3.976,3.054-10.597,4.478-11.613,4.687c-1.93,0.403-4.477,0.912-8.034,1.423l-2.446,0.409c-3.458,0.804-7.226,1.42-10.789,2.032
	l-15.367,2.851c0,0-5.902,1.523-9.059,2.438c-2.246,1.02-4.888,2.142-8.147,3.259c-10.679,3.762-21.163,8.35-31.444,13.126
	c-24.428,11.4-47.531,25.142-70.942,38.37c-0.917,8.246-1.426,16.599-1.426,25.146c0,10.275,0.817,20.451,2.139,30.434
	c37.66-31.862,73.996-65.854,118.88-87.025c13.331-5.903,26.974-10.891,41.22-13.84c0,0,4.677-1.528,8.753-1.528
	c0.296,0,0.72,0,1.114,0c15.167,0.509,13.238,10.182,2.855,18.221c-1.423,1.42-5.2,4.984-8.757,9.668
	c-7.534,11.705-21.168,35.926-28.904,66.873c-1.015,4.466-1.933,8.938-2.547,13.634c-4.984,37.351-3.156,75.817-12.111,112.572
	l-1.217,2.941c0,0-7.74,15.568-27.276,31.75c37.253,26.772,82.849,42.655,132.208,42.655c125.086,0,226.457-101.38,226.457-226.354
	C568.955,162.34,467.584,60.969,342.498,60.969z"/>
<path fill="#F59C3D" d="M547.18,334.955c-8.758-16.8-26.162-34.31-34.098-43.253c-24.121-26.973-51.908-49.668-82.443-69.003
	c-28.279-18.017-64.119-27.586-90.98-46.618c-14.973-10.586-21.482-30.229-39.896-36.235c3.957,29.62,6.708,61.071,25.023,85.902
	c-51.288,21.678-51.188,82.237-51.188,82.237c0.299,16.176,7.835,24.528,11.913,27.886c0.504,0.513,1.106,1.018,1.624,1.43
	c31.958,27.273,77.97,10.18,114.087,3.262c17.813-3.482,36.645-9.686,54.564-4.179c17.498,5.489,31.133,20.139,47.111,28.908
	c12.328,6.716,34.105,10.277,44.283,0.395C555.021,353.981,547.18,334.955,547.18,334.955z"/>
<path fill="#F59C3D" d="M237.566,439.377l1.217-2.941c8.955-36.755,7.127-75.221,12.111-112.572
	c0.615-4.696,1.532-9.168,2.547-13.634c7.735-30.946,21.37-55.168,28.904-66.873c3.558-4.684,7.334-8.248,8.757-9.668
	c10.383-8.039,12.312-17.712-2.855-18.221h-1.114c-4.076,0-8.753,1.528-8.753,1.528c-14.246,2.95-27.89,7.937-41.22,13.84
	c-44.884,21.17-81.22,55.163-118.88,87.025c8.452,62.992,42.75,117.759,92.009,153.265
	C229.827,454.945,237.566,439.377,237.566,439.377z"/>
<path fill="#F28D21" d="M219.955,210.786c3.259-1.117,5.901-2.239,8.147-3.259c3.157-0.915,9.059-2.438,9.059-2.438l15.367-2.851
	c3.658-0.612,7.331-1.228,10.789-2.032l2.446-0.409c3.557-0.511,6.104-1.02,8.034-1.423c1.016-0.209,7.638-1.633,11.613-4.687
	c3.853-2.955,1.106-6.409-1.126-6.003c-0.207,0.103-0.407,0.208-0.609,0.307l-0.204,0.105l-0.208,0.097
	c-0.61-0.097-1.214,0.098-1.828,0.204c-0.616,0-1.424,0.098-2.141,0.098c-4.268,0.11-9.974,0.11-9.974,0.11
	c-22.493-1.225-32.766-13.034-35.72-17.204l-0.514-0.816l-0.304-0.507h-0.105c-13.635-20.151-28.392-35.827-46.104-46.719
	c-37.661,35.823-63.001,84.479-69.004,138.924c23.411-13.228,46.611-26.97,70.942-38.37
	C198.792,219.136,209.275,214.548,219.955,210.786z"/>
<rect x="230.648" y="416.677" fill="#F9AF1D" width="32.258" height="32.257"/>
<rect x="198.386" y="126.007" fill="#FFD505" width="32.262" height="32.263"/>
<rect x="198.386" y="93.743" fill="#FFEDB7" width="32.262" height="32.264"/>
<rect x="166.12" y="222.797" fill="#FFD505" width="32.267" height="32.366"/>
<rect x="198.386" y="222.797" fill="#FBB81B" width="32.262" height="32.366"/>
<rect x="166.12" y="255.163" fill="#F59C3D" width="32.267" height="32.357"/>
<rect x="166.12" y="190.532" fill="#F59C3D" width="32.267" height="32.265"/>
<rect x="5" y="222.902" fill="#FFEDB7" width="32.265" height="32.261"/>
<rect x="166.12" y="158.27" fill="#FFD505" width="32.267" height="32.263"/>
<rect x="166.12" y="126.007" fill="#F59C3D" width="32.267" height="32.263"/>
<rect x="133.75" y="222.797" fill="#F59C3D" width="32.369" height="32.366"/>
<rect x="133.75" y="255.264" fill="#FBB81B" width="32.369" height="32.366"/>
<rect x="133.75" y="287.629" fill="#F59C3D" width="32.369" height="32.257"/>
<rect x="198.386" y="319.887" fill="#F9AF1D" width="32.262" height="32.262"/>
<rect x="133.75" y="190.532" fill="#FFE144" width="32.369" height="32.265"/>
<rect x="133.75" y="158.27" fill="#F59C3D" width="32.369" height="32.263"/>
<rect x="101.488" y="222.797" fill="#FFD505" width="32.262" height="32.366"/>
<rect x="101.488" y="255.264" fill="#FFEC7C" width="32.262" height="32.366"/>
<rect x="101.488" y="287.629" fill="#F59C3D" width="32.262" height="32.257"/>
<rect x="101.488" y="190.532" fill="#FFEDB7" width="32.262" height="32.265"/>
<rect x="69.228" y="222.797" fill="#FFEDB7" width="32.26" height="32.366"/>
<rect x="36.957" y="158.27" fill="#FFEDB7" width="32.271" height="32.263"/>
<rect x="36.957" y="287.629" fill="#FFEDB7" width="32.271" height="32.257"/>
<rect x="133.75" y="61.476" fill="#FFEDB7" width="32.369" height="32.267"/>
<rect x="69.228" y="255.264" fill="#FFD505" width="32.26" height="32.366"/>
<rect x="5" y="319.887" fill="#FFEC7C" width="32.265" height="32.262"/>
<rect x="69.228" y="287.629" fill="#FFE144" width="32.26" height="32.257"/>
<rect x="69.228" y="319.887" fill="#F9AF1D" width="32.26" height="32.262"/>
<rect x="101.488" y="319.887" fill="#FFE144" width="32.262" height="32.262"/>
<rect x="101.488" y="93.743" fill="#FFD505" width="32.262" height="32.264"/>
<rect x="101.488" y="352.148" fill="#F59C3D" width="32.262" height="32.267"/>
<rect x="133.75" y="352.148" fill="#FFD505" width="32.369" height="32.267"/>
<rect x="5" y="93.743" fill="#FFEDB7" width="32.265" height="32.264"/>
<rect x="133.75" y="384.415" fill="#F59C3D" width="32.369" height="32.262"/>
<rect x="166.12" y="384.415" fill="#F9AF1D" width="32.267" height="32.262"/>
<rect x="69.228" y="190.532" fill="#F9AF1D" width="32.26" height="32.265"/>
<rect x="101.488" y="158.27" fill="#FFEC7C" width="32.262" height="32.263"/>
<rect x="133.75" y="126.007" fill="#FFEC7C" width="32.369" height="32.263"/>
<rect x="166.12" y="93.743" fill="#FFEC7C" width="32.267" height="32.264"/>
<rect x="230.648" y="126.007" fill="#F59C3D" width="32.258" height="32.263"/>
<rect x="230.648" y="93.743" fill="#FFD505" width="32.258" height="32.264"/>
<rect x="230.648" y="61.476" fill="#FFEC7C" width="32.258" height="32.267"/>
<rect x="198.386" y="61.476" fill="#FFFFFF" width="32.262" height="32.267"/>
<rect x="262.907" y="93.743" fill="#FFE144" width="32.262" height="32.264"/>
<rect x="295.168" y="93.743" fill="#F9AF1D" width="32.261" height="32.264"/>
<rect x="262.907" y="61.476" fill="#FFD505" width="32.262" height="32.267"/>
<rect x="295.168" y="61.476" fill="#FFD505" width="32.261" height="32.267"/>
<path fill="#F59C3D" d="M198.386,222.797c0,0,16.178-10.178,30.627-15.471l-34.603,3.564l-4.477,8.544L198.386,222.797z"/>
<rect x="198.386" y="158.27" fill="#F59C3D" width="32.262" height="32.263"/>
<rect x="42.354" fill="none" width="548.392" height="588.289"/>
</svg>
